<?xml version="1.0" standalone="no"?>
<!DOCTYPE svg PUBLIC "-//W3C//DTD SVG 20010904//EN"
 "http://www.w3.org/TR/2001/REC-SVG-20010904/DTD/svg10.dtd">
<svg version="1.0" xmlns="http://www.w3.org/2000/svg"
 width="570.000000pt" height="570.000000pt" viewBox="0 0 570.000000 570.000000"
 preserveAspectRatio="xMidYMid meet">

<g transform="translate(0.000000,570.000000) scale(0.100000,-0.100000)"
fill="#000000" stroke="none">
<path d="M787 3995 c-4 -9 -7 -242 -7 -517 l0 -501 240 6 c354 10 349 5 360
302 9 256 -3 572 -24 613 -42 82 -112 103 -367 109 -178 5 -196 4 -202 -12z
m324 -172 c11 -13 14 -79 14 -330 l0 -315 -24 -19 c-13 -10 -31 -19 -41 -19
-15 0 -18 15 -23 107 -9 136 -9 486 -1 547 6 42 9 46 34 46 15 0 34 -7 41 -17z"/>
<path d="M1505 3580 l-7 -429 25 -44 c31 -53 87 -104 136 -125 21 -8 80 -16
141 -19 104 -4 105 -4 164 30 86 48 116 89 127 173 4 38 8 243 9 457 l0 387
-119 0 -120 0 -5 -52 c-3 -29 -7 -217 -10 -418 -5 -358 -10 -420 -38 -420 -41
1 -42 2 -50 432 -5 227 -13 423 -18 436 -9 21 -15 22 -119 22 l-108 0 -8 -430z"/>
<path d="M2226 3964 c-8 -61 -8 -795 1 -901 l6 -83 97 0 98 0 7 220 c4 121 11
220 16 220 4 0 17 -33 29 -72 11 -40 40 -136 63 -213 l42 -140 105 -5 c58 -3
109 -2 114 1 4 4 5 235 1 513 l-8 506 -92 0 c-88 0 -93 -1 -99 -22 -3 -13 -6
-93 -6 -178 -1 -85 -5 -173 -9 -195 l-8 -40 -13 30 c-7 17 -39 111 -71 209
-32 99 -64 183 -71 188 -7 4 -54 8 -104 8 l-91 0 -7 -46z"/>
<path d="M2945 3978 c-3 -18 -4 -249 -3 -513 l3 -480 239 3 c350 3 345 -1 359
294 13 263 -1 569 -29 623 -41 79 -145 105 -421 105 l-142 0 -6 -32z m326
-154 c32 -39 32 -620 -1 -659 -7 -8 -28 -15 -46 -15 l-34 0 0 329 c0 181 3
336 6 345 8 21 58 21 75 0z"/>
<path d="M3683 4003 c-10 -4 -13 -105 -13 -461 0 -251 3 -481 6 -509 l7 -53
212 0 c212 0 213 0 219 23 10 39 6 143 -6 155 -7 7 -40 12 -77 12 -115 0 -111
-4 -111 119 0 70 4 111 12 119 7 7 40 12 80 12 l68 0 0 84 c0 93 -2 96 -70 96
-21 0 -50 4 -64 10 -25 9 -26 12 -26 105 0 109 -6 103 110 107 l65 3 3 60 c2
33 0 75 -3 93 l-6 32 -197 -1 c-108 0 -203 -3 -209 -6z"/>
<path d="M4217 4003 c-8 -8 -7 -548 2 -823 l6 -195 112 0 c61 0 114 3 117 6 3
3 9 107 14 230 l7 224 30 -3 c17 -2 33 -6 37 -10 5 -5 28 -360 28 -439 0 -10
28 -13 109 -13 l109 0 7 97 c10 126 -2 317 -21 355 -8 15 -32 39 -54 53 -22
14 -40 29 -40 33 0 4 19 16 43 27 61 29 72 58 71 190 0 90 -4 119 -21 157 -30
66 -82 98 -175 109 -87 10 -372 12 -381 2z m328 -187 c12 -18 15 -45 13 -107
-3 -79 -4 -84 -30 -96 -51 -25 -58 -13 -58 113 l0 114 30 0 c20 0 34 -8 45
-24z"/>
<path d="M4712 2821 c-8 -5 -12 -23 -10 -47 l3 -39 75 -6 c41 -4 108 -5 148
-2 l72 6 0 42 c0 40 -2 43 -31 49 -46 9 -242 7 -257 -3z"/>
<path d="M798 2803 l-67 -4 -1 -509 0 -510 108 0 109 0 6 173 c4 94 7 232 7
305 0 78 4 131 9 128 10 -7 17 -48 61 -359 17 -120 33 -224 36 -231 3 -8 15
-17 27 -20 21 -5 127 3 127 10 0 6 49 370 65 484 19 132 23 150 35 150 6 0 10
-119 10 -325 l0 -325 28 0 c16 0 63 3 105 6 l77 7 0 507 c0 454 -2 509 -16
514 -20 8 -182 6 -254 -2 l-55 -7 -12 -75 c-6 -41 -19 -136 -28 -211 -16 -125
-27 -171 -38 -159 -4 4 -43 254 -62 392 -4 32 -12 51 -25 58 -18 9 -103 10
-252 3z"/>
<path d="M1699 2803 c-24 -6 -32 -234 -23 -665 l7 -358 123 0 124 0 0 509 0
509 -31 6 c-34 7 -174 6 -200 -1z"/>
<path d="M2620 2801 c-27 -5 -35 -11 -34 -26 1 -11 2 -242 3 -514 l1 -494 112
7 c62 4 114 9 117 11 2 3 8 97 12 210 5 113 11 210 14 215 3 6 39 10 78 10
l72 0 -3 90 -3 89 -72 3 -72 3 -3 101 -3 101 53 6 c29 4 68 7 86 7 l32 0 0 89
0 88 -52 7 c-64 7 -289 6 -338 -3z"/>
<path d="M3118 2805 c-5 -5 -8 -237 -8 -517 l0 -508 205 0 205 0 0 83 c0 51
-5 88 -12 95 -7 7 -32 12 -57 12 -26 0 -56 3 -68 6 l-21 6 -4 403 c-1 222 -6
406 -9 410 -10 10 -223 19 -231 10z"/>
<path d="M3628 2803 c-17 -4 -18 -37 -18 -512 l0 -508 103 -7 c56 -4 110 -4
120 0 16 6 17 43 17 520 l0 514 -102 -1 c-57 -1 -111 -3 -120 -6z"/>
<path d="M4008 2804 c-17 -5 -18 -39 -18 -520 l0 -514 48 0 c26 0 70 3 98 6
l51 6 7 211 c3 116 9 213 11 216 10 10 18 -13 79 -221 l63 -213 106 -3 107 -3
2 516 c3 593 17 531 -112 520 l-77 -7 -7 -60 c-3 -34 -6 -122 -7 -197 0 -75
-4 -145 -9 -156 -7 -19 -8 -18 -18 7 -6 14 -36 105 -67 201 -31 96 -62 183
-70 193 -11 15 -29 19 -92 21 -43 1 -86 -1 -95 -3z"/>
<path d="M2065 2791 c-10 -18 -8 -1002 3 -1013 6 -6 49 -7 121 -3 l111 8 1 66
c1 36 4 134 8 216 l6 150 78 3 78 3 -3 87 -3 87 -75 5 -75 5 -3 103 -3 102 91
0 90 0 0 95 0 95 -209 0 c-121 0 -212 -4 -216 -9z"/>
<path d="M4700 2620 l0 -40 49 0 c28 0 53 -4 56 -10 3 -5 -19 -22 -49 -37 -55
-27 -56 -28 -56 -70 l0 -43 150 0 150 0 0 39 0 40 -52 3 c-28 2 -53 8 -55 13
-2 6 22 23 52 38 53 26 55 28 55 67 l0 40 -150 0 -150 0 0 -40z"/>
<path d="M4742 2350 c-46 -19 -66 -117 -38 -185 16 -37 42 -55 80 -55 24 0 26
4 26 43 0 40 -2 44 -32 52 -18 6 -34 18 -36 28 -3 15 7 17 112 17 107 0 116
-1 116 -19 0 -21 -19 -31 -61 -31 -28 0 -29 -2 -29 -45 l0 -45 39 0 c32 0 44
6 66 32 26 30 27 37 22 98 -7 87 -13 98 -55 110 -45 12 -179 12 -210 0z"/>
<path d="M4672 1982 c-7 -5 -15 -41 -19 -90 -6 -76 -5 -83 17 -100 l22 -18
-22 -43 c-26 -53 -16 -70 28 -47 46 24 89 71 96 108 4 18 9 65 13 105 6 72 6
72 -21 83 -32 12 -96 13 -114 2z"/>
</g>
</svg>
